<?xml version="1.0" encoding="UTF-8" standalone="no"?>
<svg
   width="16"
   height="16"
   fill="currentColor"
   class="bi bi-stack"
   viewBox="0 0 16 16"
   version="1.1"
   id="svg136"
   sodipodi:docname="stack.svg"
   inkscape:version="1.2.1 (9c6d41e4, 2022-07-14)"
   inkscape:export-filename="../GK/laravel/jdih/public/images/stack_app.png"
   inkscape:export-xdpi="96"
   inkscape:export-ydpi="96"
   xmlns:inkscape="http://www.inkscape.org/namespaces/inkscape"
   xmlns:sodipodi="http://sodipodi.sourceforge.net/DTD/sodipodi-0.dtd"
   xmlns:xlink="http://www.w3.org/1999/xlink"
   xmlns="http://www.w3.org/2000/svg"
   xmlns:svg="http://www.w3.org/2000/svg">
  <defs
     id="defs140">
    <linearGradient
       inkscape:collect="always"
       id="linearGradient1006">
      <stop
         style="stop-color:#000000;stop-opacity:0;"
         offset="0"
         id="stop1004" />
      <stop
         style="stop-color:#0000b6;stop-opacity:1;"
         offset="1"
         id="stop1002" />
    </linearGradient>
    <linearGradient
       inkscape:collect="always"
       id="linearGradient998">
      <stop
         style="stop-color:#0000b7;stop-opacity:1;"
         offset="0"
         id="stop994" />
      <stop
         style="stop-color:#000000;stop-opacity:0;"
         offset="1"
         id="stop996" />
    </linearGradient>
    <linearGradient
       inkscape:collect="always"
       xlink:href="#linearGradient998"
       id="linearGradient1000"
       x1="-0.00041575692"
       y1="7.7015"
       x2="16"
       y2="7.7015"
       gradientUnits="userSpaceOnUse" />
    <linearGradient
       inkscape:collect="always"
       xlink:href="#linearGradient1006"
       id="linearGradient1010"
       x1="0.00058083073"
       y1="9.1954575"
       x2="16"
       y2="9.1954575"
       gradientUnits="userSpaceOnUse" />
  </defs>
  <sodipodi:namedview
     id="namedview138"
     pagecolor="#ffffff"
     bordercolor="#000000"
     borderopacity="0.25"
     inkscape:showpageshadow="2"
     inkscape:pageopacity="0.0"
     inkscape:pagecheckerboard="0"
     inkscape:deskcolor="#d1d1d1"
     showgrid="false"
     inkscape:zoom="14.75"
     inkscape:cx="6.2372881"
     inkscape:cy="8.3728814"
     inkscape:window-width="1303"
     inkscape:window-height="693"
     inkscape:window-x="0"
     inkscape:window-y="25"
     inkscape:window-maximized="0"
     inkscape:current-layer="svg136" />
  <path
     d="m14.12 10.163 1.715.858c.22.11.22.424 0 .534L8.267 15.34a.598.598 0 0 1-.534 0L.165 11.555a.299.299 0 0 1 0-.534l1.716-.858 5.317 2.659c.505.252 1.1.252 1.604 0l5.317-2.66zM7.733.063a.598.598 0 0 1 .534 0l7.568 3.784a.3.3 0 0 1 0 .535L8.267 8.165a.598.598 0 0 1-.534 0L.165 4.382a.299.299 0 0 1 0-.535L7.733.063z"
     id="path132"
     style="fill-opacity:1;fill:url(#linearGradient1000)" />
  <path
     d="m14.12 6.576 1.715.858c.22.11.22.424 0 .534l-7.568 3.784a.598.598 0 0 1-.534 0L.165 7.968a.299.299 0 0 1 0-.534l1.716-.858 5.317 2.659c.505.252 1.1.252 1.604 0l5.317-2.659z"
     id="path134"
     style="fill-opacity:1;fill:url(#linearGradient1010)" />
</svg>
